<svg width="34" height="34" viewBox="0 0 34 34" fill="none" xmlns="http://www.w3.org/2000/svg">
<path d="M16.1367 9.01C13.252 8.63547 10.4072 7.94219 7.71905 9.61828C5.2089 11.1855 3.28577 13.8603 2.55265 16.7237C1.51671 20.7692 2.13296 25.3752 4.89811 28.6158C6.41749 30.3928 8.94358 32.2867 11.2014 32.9906C16.9973 34.8022 24.1612 33.9442 27.7976 28.5441C28.8362 27.0034 29.8775 24.913 30.2573 23.0855C31.3225 17.9695 30.1298 11.9744 24.8333 9.77234C22.4745 8.79219 19.9537 9.33141 17.4887 9.15344C17.0345 9.11891 16.5856 9.06844 16.1367 9.01V9.01Z" fill="#DB4437"/>
<path d="M24.9475 0.154063C26.8706 0.0903127 30.0953 0.950938 31.3995 2.32422C31.5589 2.49688 31.8644 2.73859 31.9095 2.95109C31.9812 3.29906 31.705 3.59656 31.5031 3.85156C28.6344 7.51453 22.7587 9.41375 19.04 6.92484C18.5194 6.57688 18.7983 5.93141 18.9045 5.3975C19.3322 3.26719 20.9764 1.31219 23.0031 0.539219C23.6379 0.2975 24.294 0.175313 24.9475 0.154063V0.154063Z" fill="#87D02B"/>
<path d="M18.9683 5.8225C18.9497 5.75344 18.9151 5.69234 18.8647 5.64984C18.7584 5.5675 18.5379 5.48516 18.4131 5.44C18.2245 5.36828 18.0226 5.33906 17.8261 5.33906C17.7517 5.33906 17.68 5.34172 17.6109 5.34969C17.3453 5.38156 17.1169 5.47984 16.9654 5.695C16.7636 5.97391 16.7981 6.29 16.745 6.61406C16.6706 7.07625 16.4528 7.49594 16.3333 7.9475C16.2403 8.29547 16.1659 8.64875 16.0995 9.00469C16.049 9.265 16.0065 9.52531 15.9747 9.78828C15.8604 10.7631 15.7011 11.738 15.7436 12.7234C15.7462 12.8589 15.7515 12.9944 15.7595 13.1298C15.7622 13.1989 15.7701 13.2653 15.7808 13.3344C15.7967 13.4247 15.802 13.5283 15.8126 13.6319C15.8179 13.6691 15.8206 13.7063 15.8259 13.7434C15.8551 13.9028 15.9109 14.0516 16.0623 14.1339C16.2509 14.2402 16.474 14.288 16.6972 14.2906C16.7662 14.2906 16.8326 14.28 16.9017 14.2747L17.077 14.2641C17.162 14.2402 17.247 14.2083 17.3373 14.1844C17.4781 14.1498 17.6162 14.0781 17.7145 13.9692C17.8022 13.8709 17.8128 13.77 17.8075 13.6531L17.7995 13.5708C17.7889 13.4672 17.7809 13.3609 17.7756 13.2547C17.765 13.0448 17.757 12.8297 17.7517 12.6198C17.7358 12.147 17.7437 11.6689 17.7862 11.1961C17.8154 10.9145 17.8287 10.6277 17.8526 10.3461C17.8819 9.95297 17.9376 9.5625 18.004 9.17203C18.02 9.08969 18.0279 9.01 18.0439 8.93031C18.1395 8.43094 18.3175 7.98203 18.5087 7.50922C18.5964 7.29141 18.6336 7.06031 18.7133 6.85047C18.8009 6.63266 18.9948 6.51313 18.9948 6.25281C18.9948 6.13328 19.0054 5.96063 18.9683 5.8225V5.8225Z" fill="#855C52"/>
<path d="M10.4045 11.5786C10.0645 11.1217 9.13218 11.0766 8.46811 11.305C7.64733 11.5866 6.91686 12.2002 6.40421 12.8908C5.96327 13.4858 5.31514 14.7342 5.9553 15.4169C6.26874 15.7489 6.64858 15.6188 7.00983 15.4381C7.66593 15.1114 8.06171 14.3969 8.61421 13.9373C9.18264 13.4672 11.1934 12.6225 10.4045 11.5786V11.5786Z" fill="white"/>
<path d="M15.9428 13.5495C15.3212 13.4167 14.7156 13.1962 14.1472 12.9173C13.8497 12.7712 12.989 12.0859 12.9014 12.8058C12.7898 13.6744 13.9878 14.4234 14.5828 14.7023C15.6081 15.1858 16.7556 15.3584 17.858 15.1353C18.9205 14.9202 19.8262 14.3969 20.5062 13.4778C20.5939 13.3583 20.6523 13.2175 20.6948 13.0847C20.8462 12.6039 20.3203 12.5986 20.0387 12.7341C19.8103 12.843 19.6137 13.0183 19.3879 13.1272C18.9523 13.337 18.4954 13.507 18.0306 13.5973C17.3347 13.7302 16.6308 13.6956 15.9428 13.5495V13.5495Z" fill="#B93221"/>
</svg>
