<svg width="36" height="36" viewBox="0 0 36 36" fill="none" xmlns="http://www.w3.org/2000/svg">
<path d="M11.84 7.634C11.121 7.634 9.54501 9.877 8.27301 8.663C7.83301 8.244 10.091 7.385 10 6.646C9.92501 6.039 7.15801 5.126 8.12501 4.547C9.09201 3.969 10.543 5.388 11.638 5.413C14.02 5.468 15.85 4.56 15.876 4.547C16.0044 4.48194 16.1445 4.44315 16.2881 4.43292C16.4317 4.42269 16.5759 4.44121 16.7122 4.4874C16.8486 4.53359 16.9743 4.60652 17.0821 4.70193C17.1899 4.79733 17.2776 4.91328 17.34 5.043C17.61 5.59 17.391 6.256 16.852 6.529C16.721 6.595 14.627 7.634 11.84 7.634Z" fill="#DD2E44"/>
<path d="M27.818 36C23.851 36 19.636 33.088 19.636 27.692C19.636 26.318 18.746 26.031 17.999 26.031C17.253 26.031 16.363 26.318 16.363 27.692C16.363 33.088 12.147 36 8.181 36C4.215 36 0 33.23 0 27.692C0 14.4 14.182 12.565 14.182 14.4C14.182 16.235 6.546 13.293 6.546 26.585C6.546 28.8 7.436 29.354 8.182 29.354C8.929 29.354 9.819 29.067 9.819 27.693C9.819 22.298 14.034 19.385 18.001 19.385C21.967 19.385 26.183 22.297 26.183 27.693C26.183 29.067 27.073 29.354 27.82 29.354C28.567 29.354 29.456 29.067 29.456 27.693V11.077C29.456 7.222 26.039 6.646 24.002 6.646C24.002 6.646 20.73 7.754 17.457 7.754C14.184 7.754 13.093 5.158 13.093 3.323C13.091 1.488 17.455 0 24 0C30.546 0 36 4.451 36 11.077V27.692C36 33.088 31.784 36 27.818 36Z" fill="#77B255"/>
<path d="M19 4C19.5523 4 20 3.55228 20 3C20 2.44772 19.5523 2 19 2C18.4477 2 18 2.44772 18 3C18 3.55228 18.4477 4 19 4Z" fill="#292F33"/>
</svg>
