<svg width="483" height="483" viewBox="0 0 483 483" fill="none" xmlns="http://www.w3.org/2000/svg">
<rect x="437" y="460" width="23" height="23" fill="#6FAA4D"/>
<rect x="345" y="460" width="23" height="23" fill="#6FAA4D"/>
<rect x="253" y="460" width="23" height="23" fill="#6FAA4D"/>
<rect x="161" y="460" width="23" height="23" fill="#6FAA4D"/>
<rect x="69" y="460" width="23" height="23" fill="#6FAA4D"/>
<rect x="391" y="460" width="23" height="23" fill="#6FAA4D"/>
<rect x="299" y="460" width="23" height="23" fill="#6FAA4D"/>
<rect x="207" y="460" width="23" height="23" fill="#6FAA4D"/>
<rect x="115" y="460" width="23" height="23" fill="#6FAA4D"/>
<rect x="23" y="460" width="23" height="23" fill="#6FAA4D"/>
<rect x="460" y="460" width="23" height="23" fill="#77B255"/>
<rect x="368" y="460" width="23" height="23" fill="#77B255"/>
<rect y="460" width="23" height="23" fill="#77B255"/>
<rect x="276" y="460" width="23" height="23" fill="#77B255"/>
<rect x="184" y="460" width="23" height="23" fill="#77B255"/>
<rect x="92" y="460" width="23" height="23" fill="#77B255"/>
<rect x="414" y="460" width="23" height="23" fill="#77B255"/>
<rect x="322" y="460" width="23" height="23" fill="#77B255"/>
<rect x="230" y="460" width="23" height="23" fill="#77B255"/>
<rect x="138" y="460" width="23" height="23" fill="#77B255"/>
<rect x="46" y="460" width="23" height="23" fill="#77B255"/>
<rect x="460" y="437" width="23" height="23" fill="#6FAA4D"/>
<rect x="368" y="437" width="23" height="23" fill="#6FAA4D"/>
<rect x="276" y="437" width="23" height="23" fill="#6FAA4D"/>
<rect x="184" y="437" width="23" height="23" fill="#6FAA4D"/>
<rect x="92" y="437" width="23" height="23" fill="#6FAA4D"/>
<rect x="414" y="437" width="23" height="23" fill="#6FAA4D"/>
<rect x="322" y="437" width="23" height="23" fill="#6FAA4D"/>
<rect x="230" y="437" width="23" height="23" fill="#6FAA4D"/>
<rect x="138" y="437" width="23" height="23" fill="#6FAA4D"/>
<rect x="46" y="437" width="23" height="23" fill="#6FAA4D"/>
<rect y="437" width="23" height="23" fill="#6FAA4D"/>
<rect x="391" y="437" width="23" height="23" fill="#77B255"/>
<rect x="23" y="437" width="23" height="23" fill="#77B255"/>
<rect x="299" y="437" width="23" height="23" fill="#77B255"/>
<rect x="207" y="437" width="23" height="23" fill="#77B255"/>
<rect x="115" y="437" width="23" height="23" fill="#77B255"/>
<rect x="437" y="437" width="23" height="23" fill="#77B255"/>
<rect x="345" y="437" width="23" height="23" fill="#77B255"/>
<rect x="253" y="437" width="23" height="23" fill="#77B255"/>
<rect x="161" y="437" width="23" height="23" fill="#77B255"/>
<rect x="69" y="437" width="23" height="23" fill="#77B255"/>
<rect x="437" y="414" width="23" height="23" fill="#6FAA4D"/>
<rect x="345" y="414" width="23" height="23" fill="#6FAA4D"/>
<rect x="253" y="414" width="23" height="23" fill="#6FAA4D"/>
<rect x="161" y="414" width="23" height="23" fill="#6FAA4D"/>
<rect x="69" y="414" width="23" height="23" fill="#6FAA4D"/>
<rect x="391" y="414" width="23" height="23" fill="#6FAA4D"/>
<rect x="299" y="414" width="23" height="23" fill="#6FAA4D"/>
<rect x="207" y="414" width="23" height="23" fill="#6FAA4D"/>
<rect x="115" y="414" width="23" height="23" fill="#6FAA4D"/>
<rect x="23" y="414" width="23" height="23" fill="#6FAA4D"/>
<rect x="460" y="414" width="23" height="23" fill="#77B255"/>
<rect x="368" y="414" width="23" height="23" fill="#77B255"/>
<rect y="414" width="23" height="23" fill="#77B255"/>
<rect x="276" y="414" width="23" height="23" fill="#77B255"/>
<rect x="184" y="414" width="23" height="23" fill="#77B255"/>
<rect x="92" y="414" width="23" height="23" fill="#77B255"/>
<rect x="414" y="414" width="23" height="23" fill="#77B255"/>
<rect x="322" y="414" width="23" height="23" fill="#77B255"/>
<rect x="230" y="414" width="23" height="23" fill="#77B255"/>
<rect x="138" y="414" width="23" height="23" fill="#77B255"/>
<rect x="46" y="414" width="23" height="23" fill="#77B255"/>
<rect x="460" y="391" width="23" height="23" fill="#6FAA4D"/>
<rect x="368" y="391" width="23" height="23" fill="#6FAA4D"/>
<rect x="276" y="391" width="23" height="23" fill="#6FAA4D"/>
<rect x="184" y="391" width="23" height="23" fill="#6FAA4D"/>
<rect x="92" y="391" width="23" height="23" fill="#6FAA4D"/>
<rect x="414" y="391" width="23" height="23" fill="#6FAA4D"/>
<rect x="322" y="391" width="23" height="23" fill="#6FAA4D"/>
<rect x="230" y="391" width="23" height="23" fill="#6FAA4D"/>
<rect x="138" y="391" width="23" height="23" fill="#6FAA4D"/>
<rect x="46" y="391" width="23" height="23" fill="#6FAA4D"/>
<rect y="391" width="23" height="23" fill="#6FAA4D"/>
<rect x="391" y="391" width="23" height="23" fill="#77B255"/>
<rect x="23" y="391" width="23" height="23" fill="#77B255"/>
<rect x="299" y="391" width="23" height="23" fill="#77B255"/>
<rect x="207" y="391" width="23" height="23" fill="#77B255"/>
<rect x="115" y="391" width="23" height="23" fill="#77B255"/>
<rect x="437" y="391" width="23" height="23" fill="#77B255"/>
<rect x="345" y="391" width="23" height="23" fill="#77B255"/>
<rect x="253" y="391" width="23" height="23" fill="#77B255"/>
<rect x="161" y="391" width="23" height="23" fill="#77B255"/>
<rect x="69" y="391" width="23" height="23" fill="#77B255"/>
<rect x="437" y="368" width="23" height="23" fill="#6FAA4D"/>
<rect x="345" y="368" width="23" height="23" fill="#6FAA4D"/>
<rect x="253" y="368" width="23" height="23" fill="#6FAA4D"/>
<rect x="161" y="368" width="23" height="23" fill="#6FAA4D"/>
<rect x="69" y="368" width="23" height="23" fill="#6FAA4D"/>
<rect x="391" y="368" width="23" height="23" fill="#6FAA4D"/>
<rect x="299" y="368" width="23" height="23" fill="#6FAA4D"/>
<rect x="207" y="368" width="23" height="23" fill="#6FAA4D"/>
<rect x="115" y="368" width="23" height="23" fill="#6FAA4D"/>
<rect x="23" y="368" width="23" height="23" fill="#6FAA4D"/>
<rect x="460" y="368" width="23" height="23" fill="#77B255"/>
<rect x="368" y="368" width="23" height="23" fill="#77B255"/>
<rect y="368" width="23" height="23" fill="#77B255"/>
<rect x="276" y="368" width="23" height="23" fill="#77B255"/>
<rect x="184" y="368" width="23" height="23" fill="#77B255"/>
<rect x="92" y="368" width="23" height="23" fill="#77B255"/>
<rect x="414" y="368" width="23" height="23" fill="#77B255"/>
<rect x="322" y="368" width="23" height="23" fill="#77B255"/>
<rect x="230" y="368" width="23" height="23" fill="#77B255"/>
<rect x="138" y="368" width="23" height="23" fill="#77B255"/>
<rect x="46" y="368" width="23" height="23" fill="#77B255"/>
<rect x="460" y="345" width="23" height="23" fill="#6FAA4D"/>
<rect x="368" y="345" width="23" height="23" fill="#6FAA4D"/>
<rect x="276" y="345" width="23" height="23" fill="#6FAA4D"/>
<rect x="184" y="345" width="23" height="23" fill="#6FAA4D"/>
<rect x="92" y="345" width="23" height="23" fill="#6FAA4D"/>
<rect x="414" y="345" width="23" height="23" fill="#6FAA4D"/>
<rect x="322" y="345" width="23" height="23" fill="#6FAA4D"/>
<rect x="230" y="345" width="23" height="23" fill="#6FAA4D"/>
<rect x="138" y="345" width="23" height="23" fill="#6FAA4D"/>
<rect x="46" y="345" width="23" height="23" fill="#6FAA4D"/>
<rect y="345" width="23" height="23" fill="#6FAA4D"/>
<rect x="391" y="345" width="23" height="23" fill="#77B255"/>
<rect x="23" y="345" width="23" height="23" fill="#77B255"/>
<rect x="299" y="345" width="23" height="23" fill="#77B255"/>
<rect x="207" y="345" width="23" height="23" fill="#77B255"/>
<rect x="115" y="345" width="23" height="23" fill="#77B255"/>
<rect x="437" y="345" width="23" height="23" fill="#77B255"/>
<rect x="345" y="345" width="23" height="23" fill="#77B255"/>
<rect x="253" y="345" width="23" height="23" fill="#77B255"/>
<rect x="161" y="345" width="23" height="23" fill="#77B255"/>
<rect x="69" y="345" width="23" height="23" fill="#77B255"/>
<rect x="437" y="322" width="23" height="23" fill="#6FAA4D"/>
<rect x="345" y="322" width="23" height="23" fill="#6FAA4D"/>
<rect x="253" y="322" width="23" height="23" fill="#6FAA4D"/>
<rect x="161" y="322" width="23" height="23" fill="#6FAA4D"/>
<rect x="69" y="322" width="23" height="23" fill="#6FAA4D"/>
<rect x="391" y="322" width="23" height="23" fill="#6FAA4D"/>
<rect x="299" y="322" width="23" height="23" fill="#6FAA4D"/>
<rect x="207" y="322" width="23" height="23" fill="#6FAA4D"/>
<rect x="115" y="322" width="23" height="23" fill="#6FAA4D"/>
<rect x="23" y="322" width="23" height="23" fill="#6FAA4D"/>
<rect x="460" y="322" width="23" height="23" fill="#77B255"/>
<rect x="368" y="322" width="23" height="23" fill="#77B255"/>
<rect y="322" width="23" height="23" fill="#77B255"/>
<rect x="276" y="322" width="23" height="23" fill="#77B255"/>
<rect x="184" y="322" width="23" height="23" fill="#77B255"/>
<rect x="92" y="322" width="23" height="23" fill="#77B255"/>
<rect x="414" y="322" width="23" height="23" fill="#77B255"/>
<rect x="322" y="322" width="23" height="23" fill="#77B255"/>
<rect x="230" y="322" width="23" height="23" fill="#77B255"/>
<rect x="138" y="322" width="23" height="23" fill="#77B255"/>
<rect x="46" y="322" width="23" height="23" fill="#77B255"/>
<rect x="460" y="299" width="23" height="23" fill="#6FAA4D"/>
<rect x="368" y="299" width="23" height="23" fill="#6FAA4D"/>
<rect x="276" y="299" width="23" height="23" fill="#6FAA4D"/>
<rect x="184" y="299" width="23" height="23" fill="#6FAA4D"/>
<rect x="92" y="299" width="23" height="23" fill="#6FAA4D"/>
<rect x="414" y="299" width="23" height="23" fill="#6FAA4D"/>
<rect x="322" y="299" width="23" height="23" fill="#6FAA4D"/>
<rect x="230" y="299" width="23" height="23" fill="#6FAA4D"/>
<rect x="138" y="299" width="23" height="23" fill="#6FAA4D"/>
<rect x="46" y="299" width="23" height="23" fill="#6FAA4D"/>
<rect y="299" width="23" height="23" fill="#6FAA4D"/>
<rect x="391" y="299" width="23" height="23" fill="#77B255"/>
<rect x="23" y="299" width="23" height="23" fill="#77B255"/>
<rect x="299" y="299" width="23" height="23" fill="#77B255"/>
<rect x="207" y="299" width="23" height="23" fill="#77B255"/>
<rect x="115" y="299" width="23" height="23" fill="#77B255"/>
<rect x="437" y="299" width="23" height="23" fill="#77B255"/>
<rect x="345" y="299" width="23" height="23" fill="#77B255"/>
<rect x="253" y="299" width="23" height="23" fill="#77B255"/>
<rect x="161" y="299" width="23" height="23" fill="#77B255"/>
<rect x="69" y="299" width="23" height="23" fill="#77B255"/>
<rect x="437" y="276" width="23" height="23" fill="#6FAA4D"/>
<rect x="345" y="276" width="23" height="23" fill="#6FAA4D"/>
<rect x="253" y="276" width="23" height="23" fill="#6FAA4D"/>
<rect x="161" y="276" width="23" height="23" fill="#6FAA4D"/>
<rect x="69" y="276" width="23" height="23" fill="#6FAA4D"/>
<rect x="391" y="276" width="23" height="23" fill="#6FAA4D"/>
<rect x="299" y="276" width="23" height="23" fill="#6FAA4D"/>
<rect x="207" y="276" width="23" height="23" fill="#6FAA4D"/>
<rect x="115" y="276" width="23" height="23" fill="#6FAA4D"/>
<rect x="23" y="276" width="23" height="23" fill="#6FAA4D"/>
<rect x="460" y="276" width="23" height="23" fill="#77B255"/>
<rect x="368" y="276" width="23" height="23" fill="#77B255"/>
<rect y="276" width="23" height="23" fill="#77B255"/>
<rect x="276" y="276" width="23" height="23" fill="#77B255"/>
<rect x="184" y="276" width="23" height="23" fill="#77B255"/>
<rect x="92" y="276" width="23" height="23" fill="#77B255"/>
<rect x="414" y="276" width="23" height="23" fill="#77B255"/>
<rect x="322" y="276" width="23" height="23" fill="#77B255"/>
<rect x="230" y="276" width="23" height="23" fill="#77B255"/>
<rect x="138" y="276" width="23" height="23" fill="#77B255"/>
<rect x="46" y="276" width="23" height="23" fill="#77B255"/>
<rect x="460" y="253" width="23" height="23" fill="#6FAA4D"/>
<rect x="368" y="253" width="23" height="23" fill="#6FAA4D"/>
<rect x="276" y="253" width="23" height="23" fill="#6FAA4D"/>
<rect x="184" y="253" width="23" height="23" fill="#6FAA4D"/>
<rect x="92" y="253" width="23" height="23" fill="#6FAA4D"/>
<rect x="414" y="253" width="23" height="23" fill="#6FAA4D"/>
<rect x="322" y="253" width="23" height="23" fill="#6FAA4D"/>
<rect x="230" y="253" width="23" height="23" fill="#6FAA4D"/>
<rect x="138" y="253" width="23" height="23" fill="#6FAA4D"/>
<rect x="46" y="253" width="23" height="23" fill="#6FAA4D"/>
<rect y="253" width="23" height="23" fill="#6FAA4D"/>
<rect x="391" y="253" width="23" height="23" fill="#77B255"/>
<rect x="23" y="253" width="23" height="23" fill="#77B255"/>
<rect x="299" y="253" width="23" height="23" fill="#77B255"/>
<rect x="207" y="253" width="23" height="23" fill="#77B255"/>
<rect x="115" y="253" width="23" height="23" fill="#77B255"/>
<rect x="437" y="253" width="23" height="23" fill="#77B255"/>
<rect x="345" y="253" width="23" height="23" fill="#77B255"/>
<rect x="253" y="253" width="23" height="23" fill="#77B255"/>
<rect x="161" y="253" width="23" height="23" fill="#77B255"/>
<rect x="69" y="253" width="23" height="23" fill="#77B255"/>
<rect x="437" y="230" width="23" height="23" fill="#6FAA4D"/>
<rect x="345" y="230" width="23" height="23" fill="#6FAA4D"/>
<rect x="253" y="230" width="23" height="23" fill="#6FAA4D"/>
<rect x="161" y="230" width="23" height="23" fill="#6FAA4D"/>
<rect x="69" y="230" width="23" height="23" fill="#6FAA4D"/>
<rect x="391" y="230" width="23" height="23" fill="#6FAA4D"/>
<rect x="299" y="230" width="23" height="23" fill="#6FAA4D"/>
<rect x="207" y="230" width="23" height="23" fill="#6FAA4D"/>
<rect x="115" y="230" width="23" height="23" fill="#6FAA4D"/>
<rect x="23" y="230" width="23" height="23" fill="#6FAA4D"/>
<rect x="460" y="230" width="23" height="23" fill="#77B255"/>
<rect x="368" y="230" width="23" height="23" fill="#77B255"/>
<rect y="230" width="23" height="23" fill="#77B255"/>
<rect x="276" y="230" width="23" height="23" fill="#77B255"/>
<rect x="184" y="230" width="23" height="23" fill="#77B255"/>
<rect x="92" y="230" width="23" height="23" fill="#77B255"/>
<rect x="414" y="230" width="23" height="23" fill="#77B255"/>
<rect x="322" y="230" width="23" height="23" fill="#77B255"/>
<rect x="230" y="230" width="23" height="23" fill="#77B255"/>
<rect x="138" y="230" width="23" height="23" fill="#77B255"/>
<rect x="46" y="230" width="23" height="23" fill="#77B255"/>
<rect x="460" y="207" width="23" height="23" fill="#6FAA4D"/>
<rect x="368" y="207" width="23" height="23" fill="#6FAA4D"/>
<rect x="276" y="207" width="23" height="23" fill="#6FAA4D"/>
<rect x="184" y="207" width="23" height="23" fill="#6FAA4D"/>
<rect x="92" y="207" width="23" height="23" fill="#6FAA4D"/>
<rect x="414" y="207" width="23" height="23" fill="#6FAA4D"/>
<rect x="322" y="207" width="23" height="23" fill="#6FAA4D"/>
<rect x="230" y="207" width="23" height="23" fill="#6FAA4D"/>
<rect x="138" y="207" width="23" height="23" fill="#6FAA4D"/>
<rect x="46" y="207" width="23" height="23" fill="#6FAA4D"/>
<rect y="207" width="23" height="23" fill="#6FAA4D"/>
<rect x="391" y="207" width="23" height="23" fill="#77B255"/>
<rect x="23" y="207" width="23" height="23" fill="#77B255"/>
<rect x="299" y="207" width="23" height="23" fill="#77B255"/>
<rect x="207" y="207" width="23" height="23" fill="#77B255"/>
<rect x="115" y="207" width="23" height="23" fill="#77B255"/>
<rect x="437" y="207" width="23" height="23" fill="#77B255"/>
<rect x="345" y="207" width="23" height="23" fill="#77B255"/>
<rect x="253" y="207" width="23" height="23" fill="#77B255"/>
<rect x="161" y="207" width="23" height="23" fill="#77B255"/>
<rect x="69" y="207" width="23" height="23" fill="#77B255"/>
<rect x="437" y="184" width="23" height="23" fill="#6FAA4D"/>
<rect x="345" y="184" width="23" height="23" fill="#6FAA4D"/>
<rect x="253" y="184" width="23" height="23" fill="#6FAA4D"/>
<rect x="161" y="184" width="23" height="23" fill="#6FAA4D"/>
<rect x="69" y="184" width="23" height="23" fill="#6FAA4D"/>
<rect x="391" y="184" width="23" height="23" fill="#6FAA4D"/>
<rect x="299" y="184" width="23" height="23" fill="#6FAA4D"/>
<rect x="207" y="184" width="23" height="23" fill="#6FAA4D"/>
<rect x="115" y="184" width="23" height="23" fill="#6FAA4D"/>
<rect x="23" y="184" width="23" height="23" fill="#6FAA4D"/>
<rect x="460" y="184" width="23" height="23" fill="#77B255"/>
<rect x="368" y="184" width="23" height="23" fill="#77B255"/>
<rect y="184" width="23" height="23" fill="#77B255"/>
<rect x="276" y="184" width="23" height="23" fill="#77B255"/>
<rect x="184" y="184" width="23" height="23" fill="#77B255"/>
<rect x="92" y="184" width="23" height="23" fill="#77B255"/>
<rect x="414" y="184" width="23" height="23" fill="#77B255"/>
<rect x="322" y="184" width="23" height="23" fill="#77B255"/>
<rect x="230" y="184" width="23" height="23" fill="#77B255"/>
<rect x="138" y="184" width="23" height="23" fill="#77B255"/>
<rect x="46" y="184" width="23" height="23" fill="#77B255"/>
<rect x="460" y="161" width="23" height="23" fill="#6FAA4D"/>
<rect x="368" y="161" width="23" height="23" fill="#6FAA4D"/>
<rect x="276" y="161" width="23" height="23" fill="#6FAA4D"/>
<rect x="184" y="161" width="23" height="23" fill="#6FAA4D"/>
<rect x="92" y="161" width="23" height="23" fill="#6FAA4D"/>
<rect x="414" y="161" width="23" height="23" fill="#6FAA4D"/>
<rect x="322" y="161" width="23" height="23" fill="#6FAA4D"/>
<rect x="230" y="161" width="23" height="23" fill="#6FAA4D"/>
<rect x="138" y="161" width="23" height="23" fill="#6FAA4D"/>
<rect x="46" y="161" width="23" height="23" fill="#6FAA4D"/>
<rect y="161" width="23" height="23" fill="#6FAA4D"/>
<rect x="391" y="161" width="23" height="23" fill="#77B255"/>
<rect x="23" y="161" width="23" height="23" fill="#77B255"/>
<rect x="299" y="161" width="23" height="23" fill="#77B255"/>
<rect x="207" y="161" width="23" height="23" fill="#77B255"/>
<rect x="115" y="161" width="23" height="23" fill="#77B255"/>
<rect x="437" y="161" width="23" height="23" fill="#77B255"/>
<rect x="345" y="161" width="23" height="23" fill="#77B255"/>
<rect x="253" y="161" width="23" height="23" fill="#77B255"/>
<rect x="161" y="161" width="23" height="23" fill="#77B255"/>
<rect x="69" y="161" width="23" height="23" fill="#77B255"/>
<rect x="437" y="138" width="23" height="23" fill="#6FAA4D"/>
<rect x="345" y="138" width="23" height="23" fill="#6FAA4D"/>
<rect x="253" y="138" width="23" height="23" fill="#6FAA4D"/>
<rect x="161" y="138" width="23" height="23" fill="#6FAA4D"/>
<rect x="69" y="138" width="23" height="23" fill="#6FAA4D"/>
<rect x="391" y="138" width="23" height="23" fill="#6FAA4D"/>
<rect x="299" y="138" width="23" height="23" fill="#6FAA4D"/>
<rect x="207" y="138" width="23" height="23" fill="#6FAA4D"/>
<rect x="115" y="138" width="23" height="23" fill="#6FAA4D"/>
<rect x="23" y="138" width="23" height="23" fill="#6FAA4D"/>
<rect x="460" y="138" width="23" height="23" fill="#77B255"/>
<rect x="368" y="138" width="23" height="23" fill="#77B255"/>
<rect y="138" width="23" height="23" fill="#77B255"/>
<rect x="276" y="138" width="23" height="23" fill="#77B255"/>
<rect x="184" y="138" width="23" height="23" fill="#77B255"/>
<rect x="92" y="138" width="23" height="23" fill="#77B255"/>
<rect x="414" y="138" width="23" height="23" fill="#77B255"/>
<rect x="322" y="138" width="23" height="23" fill="#77B255"/>
<rect x="230" y="138" width="23" height="23" fill="#77B255"/>
<rect x="138" y="138" width="23" height="23" fill="#77B255"/>
<rect x="46" y="138" width="23" height="23" fill="#77B255"/>
<rect x="460" y="115" width="23" height="23" fill="#6FAA4D"/>
<rect x="368" y="115" width="23" height="23" fill="#6FAA4D"/>
<rect x="276" y="115" width="23" height="23" fill="#6FAA4D"/>
<rect x="184" y="115" width="23" height="23" fill="#6FAA4D"/>
<rect x="92" y="115" width="23" height="23" fill="#6FAA4D"/>
<rect x="414" y="115" width="23" height="23" fill="#6FAA4D"/>
<rect x="322" y="115" width="23" height="23" fill="#6FAA4D"/>
<rect x="230" y="115" width="23" height="23" fill="#6FAA4D"/>
<rect x="138" y="115" width="23" height="23" fill="#6FAA4D"/>
<rect x="46" y="115" width="23" height="23" fill="#6FAA4D"/>
<rect y="115" width="23" height="23" fill="#6FAA4D"/>
<rect x="391" y="115" width="23" height="23" fill="#77B255"/>
<rect x="23" y="115" width="23" height="23" fill="#77B255"/>
<rect x="299" y="115" width="23" height="23" fill="#77B255"/>
<rect x="207" y="115" width="23" height="23" fill="#77B255"/>
<rect x="115" y="115" width="23" height="23" fill="#77B255"/>
<rect x="437" y="115" width="23" height="23" fill="#77B255"/>
<rect x="345" y="115" width="23" height="23" fill="#77B255"/>
<rect x="253" y="115" width="23" height="23" fill="#77B255"/>
<rect x="161" y="115" width="23" height="23" fill="#77B255"/>
<rect x="69" y="115" width="23" height="23" fill="#77B255"/>
<rect x="437" y="92" width="23" height="23" fill="#6FAA4D"/>
<rect x="345" y="92" width="23" height="23" fill="#6FAA4D"/>
<rect x="253" y="92" width="23" height="23" fill="#6FAA4D"/>
<rect x="161" y="92" width="23" height="23" fill="#6FAA4D"/>
<rect x="69" y="92" width="23" height="23" fill="#6FAA4D"/>
<rect x="391" y="92" width="23" height="23" fill="#6FAA4D"/>
<rect x="299" y="92" width="23" height="23" fill="#6FAA4D"/>
<rect x="207" y="92" width="23" height="23" fill="#6FAA4D"/>
<rect x="115" y="92" width="23" height="23" fill="#6FAA4D"/>
<rect x="23" y="92" width="23" height="23" fill="#6FAA4D"/>
<rect x="460" y="92" width="23" height="23" fill="#77B255"/>
<rect x="368" y="92" width="23" height="23" fill="#77B255"/>
<rect y="92" width="23" height="23" fill="#77B255"/>
<rect x="276" y="92" width="23" height="23" fill="#77B255"/>
<rect x="184" y="92" width="23" height="23" fill="#77B255"/>
<rect x="92" y="92" width="23" height="23" fill="#77B255"/>
<rect x="414" y="92" width="23" height="23" fill="#77B255"/>
<rect x="322" y="92" width="23" height="23" fill="#77B255"/>
<rect x="230" y="92" width="23" height="23" fill="#77B255"/>
<rect x="138" y="92" width="23" height="23" fill="#77B255"/>
<rect x="46" y="92" width="23" height="23" fill="#77B255"/>
<rect x="460" y="69" width="23" height="23" fill="#6FAA4D"/>
<rect x="368" y="69" width="23" height="23" fill="#6FAA4D"/>
<rect x="276" y="69" width="23" height="23" fill="#6FAA4D"/>
<rect x="184" y="69" width="23" height="23" fill="#6FAA4D"/>
<rect x="92" y="69" width="23" height="23" fill="#6FAA4D"/>
<rect x="414" y="69" width="23" height="23" fill="#6FAA4D"/>
<rect x="322" y="69" width="23" height="23" fill="#6FAA4D"/>
<rect x="230" y="69" width="23" height="23" fill="#6FAA4D"/>
<rect x="138" y="69" width="23" height="23" fill="#6FAA4D"/>
<rect x="46" y="69" width="23" height="23" fill="#6FAA4D"/>
<rect y="69" width="23" height="23" fill="#6FAA4D"/>
<rect x="391" y="69" width="23" height="23" fill="#77B255"/>
<rect x="23" y="69" width="23" height="23" fill="#77B255"/>
<rect x="299" y="69" width="23" height="23" fill="#77B255"/>
<rect x="207" y="69" width="23" height="23" fill="#77B255"/>
<rect x="115" y="69" width="23" height="23" fill="#77B255"/>
<rect x="437" y="69" width="23" height="23" fill="#77B255"/>
<rect x="345" y="69" width="23" height="23" fill="#77B255"/>
<rect x="253" y="69" width="23" height="23" fill="#77B255"/>
<rect x="161" y="69" width="23" height="23" fill="#77B255"/>
<rect x="69" y="69" width="23" height="23" fill="#77B255"/>
<rect x="437" y="46" width="23" height="23" fill="#6FAA4D"/>
<rect x="345" y="46" width="23" height="23" fill="#6FAA4D"/>
<rect x="253" y="46" width="23" height="23" fill="#6FAA4D"/>
<rect x="161" y="46" width="23" height="23" fill="#6FAA4D"/>
<rect x="69" y="46" width="23" height="23" fill="#6FAA4D"/>
<rect x="391" y="46" width="23" height="23" fill="#6FAA4D"/>
<rect x="299" y="46" width="23" height="23" fill="#6FAA4D"/>
<rect x="207" y="46" width="23" height="23" fill="#6FAA4D"/>
<rect x="115" y="46" width="23" height="23" fill="#6FAA4D"/>
<rect x="23" y="46" width="23" height="23" fill="#6FAA4D"/>
<rect x="460" y="46" width="23" height="23" fill="#77B255"/>
<rect x="368" y="46" width="23" height="23" fill="#77B255"/>
<rect y="46" width="23" height="23" fill="#77B255"/>
<rect x="276" y="46" width="23" height="23" fill="#77B255"/>
<rect x="184" y="46" width="23" height="23" fill="#77B255"/>
<rect x="92" y="46" width="23" height="23" fill="#77B255"/>
<rect x="414" y="46" width="23" height="23" fill="#77B255"/>
<rect x="322" y="46" width="23" height="23" fill="#77B255"/>
<rect x="230" y="46" width="23" height="23" fill="#77B255"/>
<rect x="138" y="46" width="23" height="23" fill="#77B255"/>
<rect x="46" y="46" width="23" height="23" fill="#77B255"/>
<rect x="460" y="23" width="23" height="23" fill="#6FAA4D"/>
<rect x="368" y="23" width="23" height="23" fill="#6FAA4D"/>
<rect x="276" y="23" width="23" height="23" fill="#6FAA4D"/>
<rect x="184" y="23" width="23" height="23" fill="#6FAA4D"/>
<rect x="92" y="23" width="23" height="23" fill="#6FAA4D"/>
<rect x="414" y="23" width="23" height="23" fill="#6FAA4D"/>
<rect x="322" y="23" width="23" height="23" fill="#6FAA4D"/>
<rect x="230" y="23" width="23" height="23" fill="#6FAA4D"/>
<rect x="138" y="23" width="23" height="23" fill="#6FAA4D"/>
<rect x="46" y="23" width="23" height="23" fill="#6FAA4D"/>
<rect y="23" width="23" height="23" fill="#6FAA4D"/>
<rect x="391" y="23" width="23" height="23" fill="#77B255"/>
<rect x="23" y="23" width="23" height="23" fill="#77B255"/>
<rect x="299" y="23" width="23" height="23" fill="#77B255"/>
<rect x="207" y="23" width="23" height="23" fill="#77B255"/>
<rect x="115" y="23" width="23" height="23" fill="#77B255"/>
<rect x="437" y="23" width="23" height="23" fill="#77B255"/>
<rect x="345" y="23" width="23" height="23" fill="#77B255"/>
<rect x="253" y="23" width="23" height="23" fill="#77B255"/>
<rect x="161" y="23" width="23" height="23" fill="#77B255"/>
<rect x="69" y="23" width="23" height="23" fill="#77B255"/>
<rect x="437" width="23" height="23" fill="#6FAA4D"/>
<rect x="345" width="23" height="23" fill="#6FAA4D"/>
<rect x="253" width="23" height="23" fill="#6FAA4D"/>
<rect x="161" width="23" height="23" fill="#6FAA4D"/>
<rect x="69" width="23" height="23" fill="#6FAA4D"/>
<rect x="391" width="23" height="23" fill="#6FAA4D"/>
<rect x="299" width="23" height="23" fill="#6FAA4D"/>
<rect x="207" width="23" height="23" fill="#6FAA4D"/>
<rect x="115" width="23" height="23" fill="#6FAA4D"/>
<rect x="23" width="23" height="23" fill="#6FAA4D"/>
<rect x="460" width="23" height="23" fill="#77B255"/>
<rect x="368" width="23" height="23" fill="#77B255"/>
<rect width="23" height="23" fill="#77B255"/>
<rect x="276" width="23" height="23" fill="#77B255"/>
<rect x="184" width="23" height="23" fill="#77B255"/>
<rect x="92" width="23" height="23" fill="#77B255"/>
<rect x="414" width="23" height="23" fill="#77B255"/>
<rect x="322" width="23" height="23" fill="#77B255"/>
<rect x="230" width="23" height="23" fill="#77B255"/>
<rect x="138" width="23" height="23" fill="#77B255"/>
<rect x="46" width="23" height="23" fill="#77B255"/>
</svg>
