<svg width="34" height="34" viewBox="0 0 34 34" fill="none" xmlns="http://www.w3.org/2000/svg">
<path d="M19.125 5.3125C19.125 5.10353 19.0633 4.8992 18.9478 4.72508C18.8322 4.55096 18.6679 4.41478 18.4753 4.33359C18.2828 4.25239 18.0705 4.22978 17.8652 4.26859C17.6599 4.30739 17.4705 4.40589 17.3209 4.55175L11.101 10.608H7.4375C6.59212 10.608 5.78137 10.9438 5.1836 11.5416C4.58583 12.1394 4.25 12.9501 4.25 13.7955V20.1493C4.25 20.9946 4.58583 21.8054 5.1836 22.4032C5.78137 23.0009 6.59212 23.3368 7.4375 23.3368H11.0989L17.3187 29.4461C17.4682 29.5926 17.6575 29.6917 17.863 29.731C18.0685 29.7702 18.281 29.748 18.4739 29.667C18.6668 29.5859 18.8315 29.4498 18.9473 29.2755C19.0632 29.1013 19.125 28.8967 19.125 28.6875V5.3125ZM21.5624 13.0603C21.7616 12.8611 22.0318 12.7492 22.3136 12.7492C22.5953 12.7492 22.8655 12.8611 23.0648 13.0603L25.5021 15.4976L27.9374 13.0603C28.1369 12.861 28.4074 12.7492 28.6893 12.7494C28.9713 12.7496 29.2416 12.8618 29.4408 13.0613C29.64 13.2608 29.7519 13.5313 29.7517 13.8133C29.7515 14.0952 29.6393 14.3655 29.4398 14.5648L27.0045 17L29.4398 19.4353C29.5385 19.5339 29.6169 19.651 29.6704 19.78C29.724 19.9089 29.7516 20.0471 29.7517 20.1868C29.7518 20.3264 29.7244 20.4646 29.671 20.5936C29.6177 20.7227 29.5395 20.8399 29.4408 20.9387C29.3422 21.0375 29.225 21.1159 29.0961 21.1694C28.9671 21.2229 28.8289 21.2505 28.6893 21.2506C28.5497 21.2507 28.4114 21.2233 28.2824 21.17C28.1534 21.1166 28.0362 21.0384 27.9374 20.9398L25.5 18.5024L23.0626 20.9398C22.8631 21.139 22.5926 21.2508 22.3107 21.2506C22.0287 21.2504 21.7584 21.1382 21.5592 20.9387C21.36 20.7392 21.2481 20.4687 21.2483 20.1868C21.2485 19.9048 21.3607 19.6345 21.5602 19.4353L23.9976 17L21.5624 14.5648C21.4634 14.4661 21.3849 14.3488 21.3314 14.2197C21.2778 14.0906 21.2502 13.9523 21.2502 13.8125C21.2502 13.6727 21.2778 13.5344 21.3314 13.4053C21.3849 13.2762 21.4634 13.159 21.5624 13.0603V13.0603Z" fill="white"/>
</svg>
