<svg width="34" height="34" viewBox="0 0 34 34" fill="none" xmlns="http://www.w3.org/2000/svg">
<path d="M19.125 5.3125C19.125 5.10353 19.0633 4.8992 18.9478 4.72508C18.8322 4.55096 18.6679 4.41478 18.4753 4.33359C18.2828 4.25239 18.0705 4.22978 17.8652 4.26859C17.6599 4.30739 17.4705 4.40589 17.3209 4.55175L11.101 10.608H7.4375C6.59212 10.608 5.78137 10.9438 5.1836 11.5416C4.58583 12.1394 4.25 12.9501 4.25 13.7955V20.1493C4.25 20.9946 4.58583 21.8054 5.1836 22.4032C5.78137 23.0009 6.59212 23.3368 7.4375 23.3368H11.0989L17.3187 29.4461C17.4682 29.5926 17.6575 29.6917 17.863 29.731C18.0685 29.7702 18.281 29.748 18.4739 29.667C18.6668 29.5859 18.8315 29.4498 18.9473 29.2755C19.0632 29.1013 19.125 28.8967 19.125 28.6875V5.3125ZM21.4859 11.0266C21.5728 10.9173 21.6803 10.8262 21.8024 10.7585C21.9246 10.6907 22.0588 10.6478 22.1976 10.632C22.3363 10.6162 22.4768 10.6279 22.611 10.6664C22.7452 10.705 22.8705 10.7696 22.9798 10.8566L22.984 10.8588L22.9882 10.863L22.9989 10.8715L23.0308 10.8991L23.1285 10.9841C23.205 11.0564 23.3091 11.1541 23.4303 11.2859C23.6704 11.5473 23.9827 11.9276 24.2909 12.4334C24.9092 13.4534 25.5085 14.9685 25.5085 16.9979C25.5085 19.0251 24.9092 20.5424 24.2909 21.5624C24.043 21.9733 23.7547 22.3584 23.4303 22.712C23.2951 22.8588 23.1518 22.9979 23.001 23.1285L22.984 23.1434H22.9819C22.9819 23.1434 22.032 23.6598 21.488 22.9776C21.3131 22.7588 21.2317 22.4797 21.2615 22.2011C21.2914 21.9225 21.43 21.667 21.6474 21.4901L21.6516 21.4859L21.6495 21.488L21.6537 21.4859H21.6516L21.6899 21.4519C21.7281 21.4158 21.7919 21.3563 21.8705 21.2713C22.0981 21.0213 22.3002 20.7494 22.474 20.4595C22.9203 19.7264 23.3835 18.5853 23.3835 16.9958C23.3835 15.4084 22.9203 14.2694 22.474 13.5384C22.2555 13.1777 21.9928 12.8458 21.692 12.5503C21.5758 12.4657 21.478 12.3585 21.4044 12.235C21.3308 12.1116 21.2831 11.9745 21.264 11.8321C21.2449 11.6897 21.2549 11.5448 21.2934 11.4064C21.3319 11.268 21.3981 11.1388 21.488 11.0266H21.4859ZM25.1026 6.60663C24.9938 6.51661 24.8682 6.44917 24.7331 6.40825C24.5979 6.36734 24.456 6.35377 24.3156 6.36834C24.1751 6.38291 24.039 6.42533 23.9151 6.49311C23.7913 6.56089 23.6822 6.65268 23.5942 6.76312C23.5062 6.87355 23.4411 7.00041 23.4027 7.13629C23.3643 7.27217 23.3534 7.41433 23.3706 7.55448C23.3878 7.69462 23.4327 7.82994 23.5028 7.95251C23.5729 8.07509 23.6667 8.18247 23.7787 8.26838L23.8021 8.28963L23.9126 8.38525C24.0125 8.4745 24.1591 8.61263 24.3398 8.79963C24.701 9.17575 25.1897 9.741 25.6785 10.4869C26.656 11.9765 27.6335 14.1695 27.6335 17.0085C27.639 19.3249 26.9587 21.5911 25.6785 23.5216C25.1897 24.2654 24.701 24.8264 24.3398 25.2004C24.1689 25.3782 23.9902 25.5484 23.8042 25.7104L23.7809 25.7316H23.7787C23.5643 25.9091 23.4281 26.1637 23.3993 26.4405C23.3706 26.7174 23.4517 26.9945 23.6251 27.2122C23.7986 27.4299 24.0506 27.5709 24.3269 27.6048C24.6032 27.6386 24.8817 27.5627 25.1026 27.3934L25.1727 27.336L25.3321 27.1979C25.466 27.0768 25.6509 26.9046 25.8697 26.6773C26.4588 26.0649 26.9895 25.399 27.455 24.6883C28.962 22.411 29.7626 19.7392 29.7564 17.0085C29.7617 14.2752 28.9613 11.601 27.455 9.32025C26.9896 8.60865 26.4597 7.94141 25.8719 7.327C25.6498 7.09618 25.4172 6.87566 25.1749 6.66613L25.126 6.62575L25.1111 6.613L25.1069 6.60875L25.1026 6.60663V6.60663ZM21.6537 12.5163L21.6495 12.5141L21.6537 12.5163Z" fill="white"/>
</svg>
